<?xml version="1.0" encoding="utf-8"?>
<!-- Generator: Adobe Illustrator 23.0.1, SVG Export Plug-In . SVG Version: 6.00 Build 0)  -->
<svg version="1.1" id="Layer_1" xmlns="http://www.w3.org/2000/svg" xmlns:xlink="http://www.w3.org/1999/xlink" x="0px" y="0px"
	 viewBox="0 0 191.8 141.3" style="enable-background:new 0 0 191.8 141.3;" xml:space="preserve">
<style type="text/css">
	.st0{fill:#58595B;}
	.st1{fill:#CCCBCB;}
	.st2{fill:#909295;}
	.st3{fill:#797B7D;}
	.st4{fill:#D2DB27;}
</style>
<g>
	<path d="M111,121.1"/>
	<polygon class="st0" points="121.1,0 50.5,70.6 70.7,70.6 121.1,20.2 	"/>
	<path d="M141.3,121.1"/>
	<polygon class="st1" points="121.1,141.3 191.8,70.6 171.6,70.6 121.1,121.1 	"/>
	<polygon class="st1" points="70.6,141.3 141.3,70.6 121.1,70.6 70.6,121.1 	"/>
	<polygon class="st2" points="50.5,70.6 121.1,141.3 121.1,121.1 70.7,70.6 	"/>
	<polygon class="st3" points="191.8,70.6 121.1,0 121.1,20.2 171.6,70.6 	"/>
	<polygon class="st0" points="70.6,0 0,70.6 20.2,70.6 70.6,20.2 	"/>
	<polygon class="st2" points="0,70.6 70.6,141.3 70.6,121.1 20.2,70.6 	"/>
	<polygon class="st3" points="141.3,70.6 70.6,0 70.6,20.2 121.1,70.6 	"/>
	
		<rect x="78.1" y="52.8" transform="matrix(0.7071 -0.7071 0.7071 0.7071 -21.8236 88.5171)" class="st4" width="35.7" height="35.7"/>
	<path d="M111,130.2"/>
</g>
</svg>
